<svg width="600" height="600" viewBox="0 0 600 600" xmlns="http://www.w3.org/2000/svg">
  <rect width="600" height="600" fill="#F8F1E7"></rect>
  <rect x="40" y="40" width="520" height="520" rx="36" fill="#FFFDF8" stroke="#8B5E3C" stroke-width="8"></rect>

  <text x="300" y="95" text-anchor="middle" font-family="Arial, sans-serif" font-size="34" font-weight="700" fill="#2B1A12">QRIS</text>
  <text x="300" y="130" text-anchor="middle" font-family="Arial, sans-serif" font-size="18" fill="#8B5E3C">PLACEHOLDER ONLY</text>

  <g fill="#2B1A12">
    <rect x="95" y="155" width="100" height="100"></rect>
    <rect x="115" y="175" width="60" height="60" fill="#FFFDF8"></rect>
    <rect x="135" y="195" width="20" height="20"></rect>

    <rect x="405" y="155" width="100" height="100"></rect>
    <rect x="425" y="175" width="60" height="60" fill="#FFFDF8"></rect>
    <rect x="445" y="195" width="20" height="20"></rect>

    <rect x="95" y="405" width="100" height="100"></rect>
    <rect x="115" y="425" width="60" height="60" fill="#FFFDF8"></rect>
    <rect x="135" y="445" width="20" height="20"></rect>

    <rect x="235" y="160" width="25" height="25"></rect>
    <rect x="280" y="160" width="25" height="25"></rect>
    <rect x="330" y="160" width="35" height="25"></rect>

    <rect x="235" y="220" width="45" height="25"></rect>
    <rect x="315" y="220" width="25" height="25"></rect>
    <rect x="365" y="220" width="25" height="25"></rect>

    <rect x="235" y="285" width="25" height="25"></rect>
    <rect x="280" y="285" width="80" height="25"></rect>
    <rect x="385" y="285" width="35" height="25"></rect>

    <rect x="225" y="340" width="55" height="25"></rect>
    <rect x="310" y="340" width="25" height="25"></rect>
    <rect x="365" y="340" width="70" height="25"></rect>

    <rect x="225" y="405" width="25" height="25"></rect>
    <rect x="275" y="405" width="75" height="25"></rect>
    <rect x="380" y="405" width="25" height="25"></rect>
    <rect x="430" y="405" width="75" height="25"></rect>

    <rect x="225" y="465" width="55" height="25"></rect>
    <rect x="310" y="465" width="25" height="25"></rect>
    <rect x="365" y="465" width="105" height="25"></rect>
  </g>

  <text x="300" y="545" text-anchor="middle" font-family="Arial, sans-serif" font-size="16" fill="#5C3824">
    Replace this image from Admin Payments
  </text>
</svg>